<svg width="21" height="21" viewBox="0 0 21 21" fill="none" xmlns="http://www.w3.org/2000/svg">
<mask id="mask0_205_10705" style="mask-type:luminance" maskUnits="userSpaceOnUse" x="0" y="0" width="21" height="21">
<path d="M20.5898 0.480469H0.589844V20.4805H20.5898V0.480469Z" fill="white"/>
</mask>
<g mask="url(#mask0_205_10705)">
<path d="M10.5898 0.480469C5.08984 0.480469 0.589844 4.98047 0.589844 10.4805C0.589844 15.4805 4.21484 19.6055 9.08984 20.3555V13.3555H6.58984V10.4805H9.08984V8.23047C9.08984 5.73047 10.5898 4.35547 12.8398 4.35547C13.9648 4.35547 15.0898 4.60547 15.0898 4.60547V7.10547H13.8398C12.5898 7.10547 12.2148 7.85547 12.2148 8.73047V10.4805H14.9648L14.4648 13.3555H12.0898V20.3555C16.9648 19.6055 20.5898 15.4805 20.5898 10.4805C20.5898 4.98047 16.0898 0.480469 10.5898 0.480469Z" fill="#0095F6"/>
</g>
</svg>
